<?xml version="1.0" encoding="UTF-8"?><svg id="Layer_2" xmlns="http://www.w3.org/2000/svg" viewBox="0 0 423 36"><defs><style>.cls-1{fill:#3d3d3e;stroke-width:0px;}</style></defs><path class="cls-1" d="m40.37,23.82v-6.03l.29.31h-1.77v-.58h2.13v6.3h-.65Z"/><path class="cls-1" d="m44.41,23.87c-.46,0-.89-.07-1.29-.22-.41-.15-.73-.34-.98-.59l.31-.51c.2.21.48.38.82.52.34.14.72.21,1.13.21.52,0,.92-.11,1.2-.34.28-.23.42-.53.42-.92s-.14-.69-.41-.92c-.27-.23-.7-.34-1.29-.34h-.45v-.48l1.94-2.44.09.25h-3.51v-.58h4.05v.46l-1.94,2.44-.32-.21h.24c.76,0,1.32.17,1.7.5.38.34.56.77.56,1.3,0,.35-.08.67-.25.95-.17.28-.42.5-.76.67-.34.16-.76.24-1.27.24Z"/><path class="cls-1" d="m47.49,22.16v-.47l3.34-4.18h.72l-3.31,4.18-.35-.11h5.07v.58h-5.46Zm3.56,1.66v-1.66l.02-.58v-1.46h.63v3.69h-.65Z"/><path class="cls-1" d="m59.23,23.87c-.48,0-.92-.08-1.33-.24-.4-.16-.76-.38-1.05-.67-.3-.29-.53-.63-.69-1.02-.17-.39-.25-.82-.25-1.28s.08-.89.25-1.28c.17-.39.4-.73.7-1.02.3-.29.65-.51,1.06-.67.4-.16.85-.24,1.33-.24s.92.07,1.32.22c.4.15.74.38,1.02.68l-.41.42c-.26-.26-.56-.45-.87-.57-.32-.11-.66-.17-1.03-.17-.39,0-.75.06-1.08.19s-.61.31-.85.55-.43.51-.57.83c-.14.32-.2.66-.2,1.04s.07.72.2,1.04c.13.32.32.6.57.83s.53.42.85.55.68.19,1.07.19c.36,0,.7-.05,1.02-.16.32-.11.62-.29.89-.55l.38.5c-.3.26-.65.46-1.05.6s-.82.2-1.26.2Zm1.67-.88v-2.32h.64v2.4l-.64-.08Z"/><path class="cls-1" d="m63.29,23.82v-6.68h.64v6.68h-.64Z"/><path class="cls-1" d="m67.71,23.86c-.49,0-.92-.1-1.3-.31s-.66-.49-.87-.85c-.21-.36-.31-.78-.31-1.25s.1-.88.3-1.24c.2-.36.48-.64.83-.85.35-.21.75-.31,1.18-.31s.84.1,1.18.3c.34.2.62.48.81.85.2.36.3.78.3,1.25,0,.03,0,.06,0,.09s0,.07,0,.1h-4.11v-.48h3.77l-.25.19c0-.34-.07-.65-.22-.91-.15-.27-.35-.48-.6-.63-.25-.15-.54-.22-.87-.22s-.62.08-.87.22c-.26.15-.46.36-.6.63-.14.27-.22.58-.22.93v.1c0,.36.08.68.24.95.16.27.38.49.67.64.29.15.61.23.98.23.29,0,.56-.05.81-.15.25-.1.46-.26.64-.47l.36.41c-.21.25-.47.44-.79.58-.31.13-.66.2-1.04.2Z"/><path class="cls-1" d="m73.56,19.05c.38,0,.72.07,1.01.22.29.15.52.37.68.67s.25.68.25,1.13v2.75h-.64v-2.68c0-.5-.12-.88-.37-1.13s-.6-.38-1.05-.38c-.34,0-.63.07-.88.2-.25.13-.44.33-.58.58-.13.25-.2.56-.2.92v2.48h-.64v-4.72h.61v1.3l-.1-.24c.15-.34.39-.61.72-.81s.72-.29,1.18-.29Z"/><path class="cls-1" d="m79.11,23.86c-.45,0-.85-.1-1.21-.31s-.64-.49-.84-.85c-.2-.36-.31-.78-.31-1.26s.1-.9.31-1.26c.2-.36.48-.64.84-.84s.76-.3,1.21-.3c.41,0,.78.09,1.11.28.33.19.59.46.78.81.19.36.29.79.29,1.31s-.1.95-.29,1.31c-.19.36-.45.63-.78.82-.33.19-.7.28-1.12.28Zm.04-.57c.34,0,.64-.08.9-.23.27-.15.48-.37.63-.65s.23-.6.23-.97-.08-.7-.23-.97-.36-.49-.63-.64c-.27-.15-.57-.23-.9-.23s-.63.08-.89.23c-.26.15-.47.37-.63.64-.16.28-.23.6-.23.97s.08.69.23.97c.16.28.37.5.63.65.26.15.56.23.89.23Zm1.78.52v-1.42l.06-.95-.09-.95v-3.35h.64v6.68h-.61Z"/><path class="cls-1" d="m84.66,23.86c-.35,0-.66-.06-.92-.18-.26-.12-.46-.28-.6-.49-.14-.21-.21-.45-.21-.72,0-.25.06-.47.18-.67.12-.2.31-.36.58-.49.27-.12.63-.18,1.08-.18h1.63v.48h-1.61c-.46,0-.77.08-.95.24-.18.16-.27.36-.27.6,0,.27.1.49.31.65s.5.24.88.24.67-.08.93-.25c.26-.17.45-.4.57-.72l.14.44c-.12.31-.33.56-.63.75-.3.19-.67.28-1.12.28Zm1.63-.04v-1.04l-.03-.17v-1.75c0-.4-.11-.71-.34-.93-.22-.22-.56-.32-1-.32-.31,0-.6.05-.87.15-.28.1-.51.24-.7.4l-.29-.48c.24-.2.53-.36.86-.47s.69-.17,1.06-.17c.61,0,1.08.15,1.42.45s.5.76.5,1.38v2.93h-.61Z"/><path class="cls-1" d="m88.64,23.82v-6.68h.64v6.68h-.64Z"/><path class="cls-1" d="m93.07,23.86c-.49,0-.92-.1-1.3-.31s-.66-.49-.87-.85c-.21-.36-.31-.78-.31-1.25s.1-.88.3-1.24c.2-.36.48-.64.83-.85.35-.21.75-.31,1.18-.31s.84.1,1.18.3c.34.2.62.48.81.85.2.36.3.78.3,1.25,0,.03,0,.06,0,.09s0,.07,0,.1h-4.11v-.48h3.77l-.25.19c0-.34-.07-.65-.22-.91-.15-.27-.35-.48-.6-.63-.25-.15-.54-.22-.87-.22s-.62.08-.87.22c-.26.15-.46.36-.6.63-.14.27-.22.58-.22.93v.1c0,.36.08.68.24.95.16.27.38.49.67.64.29.15.61.23.98.23.29,0,.56-.05.81-.15.25-.1.46-.26.64-.47l.36.41c-.21.25-.47.44-.79.58-.31.13-.66.2-1.04.2Z"/><path class="cls-1" d="m98.99,23.82v-6.3h2.72c.7,0,1.25.14,1.63.42.39.28.58.68.58,1.2,0,.34-.08.63-.24.86-.16.23-.38.41-.65.53s-.57.18-.9.18l.15-.22c.4,0,.75.06,1.04.18s.52.31.68.55c.16.24.24.54.24.91,0,.53-.2.95-.59,1.24-.39.29-.99.44-1.78.44h-2.9Zm.67-.55h2.22c.55,0,.98-.09,1.27-.28.29-.19.44-.49.44-.91s-.15-.71-.44-.9c-.29-.19-.72-.28-1.27-.28h-2.29v-.55h2.08c.5,0,.9-.1,1.17-.29s.42-.48.42-.86-.14-.67-.42-.86c-.28-.19-.67-.28-1.17-.28h-2.01v5.2Z"/><path class="cls-1" d="m105.64,23.82v-6.68h.64v6.68h-.64Z"/><path class="cls-1" d="m109.28,23.82l-2.1-4.72h.67l1.93,4.38h-.31l1.95-4.38h.63l-2.11,4.72h-.66Z"/><path class="cls-1" d="m114.69,23.86c-.45,0-.85-.1-1.21-.31s-.64-.49-.84-.85c-.2-.36-.31-.78-.31-1.26s.1-.9.31-1.26c.2-.36.48-.64.84-.84s.76-.3,1.21-.3c.41,0,.78.09,1.11.28.33.19.59.46.78.81.19.36.29.79.29,1.31s-.1.95-.29,1.31c-.19.36-.45.63-.78.82-.33.19-.7.28-1.12.28Zm.04-.57c.34,0,.64-.08.9-.23.27-.15.48-.37.63-.65s.23-.6.23-.97-.08-.7-.23-.97-.36-.49-.63-.64c-.27-.15-.57-.23-.9-.23s-.63.08-.89.23c-.26.15-.47.37-.63.64-.16.28-.23.6-.23.97s.08.69.23.97c.16.28.37.5.63.65.26.15.56.23.89.23Zm1.78.52v-1.42l.06-.95-.09-.95v-3.35h.64v6.68h-.61Z"/><path class="cls-1" d="m118.98,23.86c-.13,0-.24-.05-.34-.14-.09-.1-.14-.21-.14-.35s.05-.26.14-.35c.09-.09.21-.13.34-.13s.24.04.34.13c.09.09.14.21.14.35s-.05.25-.14.35c-.09.1-.21.14-.34.14Z"/><path class="cls-1" d="m123.32,23.82v-6.3h.67v5.72h3.53v.58h-4.19Z"/><path class="cls-1" d="m130.34,23.86c-.46,0-.87-.1-1.23-.31-.36-.21-.65-.49-.86-.85-.21-.36-.31-.78-.31-1.25s.1-.89.31-1.25c.21-.36.5-.64.85-.85s.77-.31,1.23-.31.88.1,1.25.31c.36.2.65.49.85.85.21.36.31.78.31,1.25s-.1.88-.31,1.25c-.21.36-.49.65-.86.85-.37.21-.78.31-1.24.31Zm0-.57c.34,0,.65-.08.91-.23.26-.15.47-.37.63-.65s.23-.6.23-.97-.08-.7-.23-.97-.36-.49-.63-.64c-.26-.15-.56-.23-.9-.23s-.64.08-.9.23c-.26.15-.47.37-.63.64-.16.28-.23.6-.23.97s.08.69.23.97c.16.28.37.5.63.65.26.15.56.23.89.23Z"/><path class="cls-1" d="m135.33,23.86c-.39,0-.76-.06-1.11-.17-.35-.11-.62-.25-.82-.42l.29-.5c.19.14.44.27.74.37.3.11.62.16.95.16.45,0,.77-.07.97-.21.2-.14.3-.33.3-.56,0-.17-.06-.31-.17-.41-.11-.1-.26-.17-.44-.23-.18-.05-.38-.09-.6-.13-.22-.04-.44-.08-.66-.13s-.42-.12-.6-.21c-.18-.09-.33-.22-.44-.38-.11-.16-.17-.38-.17-.65s.07-.49.22-.69.36-.36.63-.48c.28-.12.62-.17,1.02-.17.31,0,.61.04.92.12.31.08.56.19.76.32l-.28.51c-.21-.14-.44-.25-.67-.31-.24-.06-.48-.09-.72-.09-.43,0-.74.07-.94.22-.2.15-.3.33-.3.56,0,.18.06.32.17.42.11.1.26.18.44.24s.38.1.6.14c.22.04.44.08.66.13.22.05.42.12.6.21s.33.21.44.37c.11.16.17.37.17.63,0,.28-.08.51-.23.71-.15.2-.38.36-.67.47-.29.11-.64.17-1.06.17Z"/><path class="cls-1" d="m139.94,23.82l2.88-6.3h.66l2.88,6.3h-.7l-2.65-5.91h.27l-2.65,5.91h-.69Zm1.13-1.68l.2-.54h3.66l.2.54h-4.06Z"/><path class="cls-1" d="m149.68,19.05c.38,0,.72.07,1.01.22.29.15.52.37.68.67s.25.68.25,1.13v2.75h-.64v-2.68c0-.5-.12-.88-.37-1.13s-.6-.38-1.05-.38c-.34,0-.63.07-.88.2-.25.13-.44.33-.58.58-.13.25-.2.56-.2.92v2.48h-.64v-4.72h.61v1.3l-.1-.24c.15-.34.39-.61.72-.81s.72-.29,1.18-.29Z"/><path class="cls-1" d="m155.25,23.64c-.45,0-.85-.1-1.21-.29-.36-.19-.64-.47-.85-.81-.21-.35-.31-.75-.31-1.2s.1-.85.31-1.19c.21-.34.49-.61.85-.81.36-.19.76-.29,1.21-.29.42,0,.8.09,1.13.26s.6.43.8.77c.2.34.3.76.3,1.25s-.1.91-.3,1.25c-.2.34-.47.6-.8.78-.34.18-.71.27-1.13.27Zm.12,1.97c-.43,0-.85-.06-1.24-.19s-.72-.31-.96-.54l.32-.49c.22.2.5.36.82.47.33.12.67.17,1.04.17.6,0,1.04-.14,1.32-.42s.42-.71.42-1.3v-1.18l.09-.81-.06-.81v-1.43h.61v4.15c0,.82-.2,1.42-.6,1.8s-.99.57-1.77.57Zm-.05-2.54c.35,0,.66-.07.93-.22.27-.15.48-.35.64-.61.16-.26.23-.56.23-.91s-.08-.64-.23-.9-.37-.46-.64-.61c-.27-.15-.58-.22-.93-.22s-.65.07-.92.22c-.27.15-.49.35-.64.61s-.23.56-.23.9.08.64.23.91c.15.26.37.46.64.61.27.15.58.22.92.22Z"/><path class="cls-1" d="m161.52,23.86c-.49,0-.92-.1-1.3-.31s-.66-.49-.87-.85c-.21-.36-.31-.78-.31-1.25s.1-.88.3-1.24c.2-.36.48-.64.83-.85.35-.21.75-.31,1.18-.31s.84.1,1.18.3c.34.2.62.48.81.85.2.36.3.78.3,1.25,0,.03,0,.06,0,.09s0,.07,0,.1h-4.11v-.48h3.77l-.25.19c0-.34-.07-.65-.22-.91-.15-.27-.35-.48-.6-.63-.25-.15-.54-.22-.87-.22s-.62.08-.87.22c-.26.15-.46.36-.6.63-.14.27-.22.58-.22.93v.1c0,.36.08.68.24.95.16.27.38.49.67.64.29.15.61.23.98.23.29,0,.56-.05.81-.15.25-.1.46-.26.64-.47l.36.41c-.21.25-.47.44-.79.58-.31.13-.66.2-1.04.2Z"/><path class="cls-1" d="m164.95,23.82v-6.68h.64v6.68h-.64Z"/><path class="cls-1" d="m169.38,23.86c-.49,0-.92-.1-1.3-.31s-.66-.49-.87-.85c-.21-.36-.31-.78-.31-1.25s.1-.88.3-1.24c.2-.36.48-.64.83-.85.35-.21.75-.31,1.18-.31s.84.1,1.18.3c.34.2.62.48.81.85.2.36.3.78.3,1.25,0,.03,0,.06,0,.09s0,.07,0,.1h-4.11v-.48h3.77l-.25.19c0-.34-.07-.65-.22-.91-.15-.27-.35-.48-.6-.63-.25-.15-.54-.22-.87-.22s-.62.08-.87.22c-.26.15-.46.36-.6.63-.14.27-.22.58-.22.93v.1c0,.36.08.68.24.95.16.27.38.49.67.64.29.15.61.23.98.23.29,0,.56-.05.81-.15.25-.1.46-.26.64-.47l.36.41c-.21.25-.47.44-.79.58-.31.13-.66.2-1.04.2Z"/><path class="cls-1" d="m174.08,23.86c-.39,0-.76-.06-1.11-.17-.35-.11-.62-.25-.82-.42l.29-.5c.19.14.44.27.74.37.3.11.62.16.95.16.45,0,.77-.07.97-.21.2-.14.3-.33.3-.56,0-.17-.06-.31-.17-.41-.11-.1-.26-.17-.44-.23-.18-.05-.38-.09-.6-.13-.22-.04-.44-.08-.66-.13s-.42-.12-.6-.21c-.18-.09-.33-.22-.44-.38-.11-.16-.17-.38-.17-.65s.07-.49.22-.69.36-.36.63-.48c.28-.12.62-.17,1.02-.17.31,0,.61.04.92.12.31.08.56.19.76.32l-.28.51c-.21-.14-.44-.25-.67-.31-.24-.06-.48-.09-.72-.09-.43,0-.74.07-.94.22-.2.15-.3.33-.3.56,0,.18.06.32.17.42.11.1.26.18.44.24s.38.1.6.14c.22.04.44.08.66.13.22.05.42.12.6.21s.33.21.44.37c.11.16.17.37.17.63,0,.28-.08.51-.23.71-.15.2-.38.36-.67.47-.29.11-.64.17-1.06.17Z"/><path class="cls-1" d="m182.43,23.87c-.47,0-.91-.08-1.31-.24-.4-.16-.75-.38-1.04-.67-.29-.29-.52-.63-.69-1.02-.17-.39-.25-.82-.25-1.28s.08-.89.25-1.28c.17-.39.4-.73.69-1.02.3-.29.65-.51,1.05-.67s.84-.24,1.31-.24.88.08,1.29.23c.4.15.74.38,1.02.69l-.42.42c-.26-.26-.54-.46-.85-.57-.31-.12-.65-.17-1.01-.17-.38,0-.73.06-1.05.19-.32.13-.61.31-.85.55-.24.24-.43.51-.56.83-.14.32-.2.66-.2,1.04s.07.72.2,1.04c.13.31.32.59.56.83.24.24.52.42.85.55.32.13.68.19,1.05.19s.7-.06,1.01-.18.6-.31.85-.58l.42.42c-.28.31-.62.54-1.02.69-.4.16-.83.23-1.3.23Z"/><path class="cls-1" d="m184.99,23.82l2.88-6.3h.66l2.88,6.3h-.7l-2.65-5.91h.27l-2.65,5.91h-.69Zm1.13-1.68l.2-.54h3.66l.2.54h-4.06Z"/><path class="cls-1" d="m196.22,17.46c.56,0,1.03.12,1.41.37.38.25.68.61.87,1.08.2.47.3,1.04.3,1.7,0,.71-.12,1.3-.36,1.79s-.58.85-1.01,1.1c-.43.25-.93.37-1.5.37-.28,0-.55-.03-.81-.08-.26-.05-.48-.14-.69-.26l.26-.52c.16.11.35.18.56.23.21.04.43.07.66.07.68,0,1.22-.22,1.62-.65.4-.43.61-1.08.61-1.93,0-.14,0-.3-.02-.5s-.05-.38-.1-.58l.23.17c-.06.31-.19.58-.38.8-.19.22-.44.39-.72.5-.29.11-.6.17-.95.17-.41,0-.78-.08-1.1-.23-.32-.16-.57-.38-.75-.66-.18-.28-.27-.62-.27-1s.09-.74.28-1.03.44-.51.77-.67c.33-.16.69-.24,1.1-.24Zm.03.55c-.3,0-.57.06-.8.17-.23.11-.41.27-.54.47-.13.2-.2.45-.2.73,0,.41.14.74.43.99.28.25.67.37,1.16.37.32,0,.61-.06.85-.18s.43-.29.57-.5c.14-.21.2-.44.2-.7,0-.23-.06-.45-.19-.66-.13-.2-.31-.37-.56-.5s-.55-.19-.92-.19Z"/><path class="cls-1" d="m202.25,23.87c-.49,0-.92-.13-1.3-.38s-.68-.62-.89-1.1c-.22-.48-.32-1.05-.32-1.72s.11-1.25.32-1.72c.22-.48.51-.84.89-1.1s.81-.38,1.3-.38.92.13,1.3.38.68.62.9,1.1c.22.48.33,1.05.33,1.72s-.11,1.25-.33,1.72c-.22.48-.52.84-.9,1.1s-.81.38-1.3.38Zm0-.59c.37,0,.7-.1.97-.3.28-.2.49-.5.65-.88.16-.39.23-.86.23-1.43s-.08-1.04-.23-1.43c-.16-.39-.37-.68-.65-.88-.28-.2-.6-.3-.97-.3s-.68.1-.96.3c-.28.2-.5.5-.66.88-.16.39-.23.86-.23,1.43s.08,1.04.23,1.43c.16.39.38.68.66.88.28.2.6.3.96.3Z"/><path class="cls-1" d="m208.2,23.87c-.49,0-.92-.13-1.3-.38s-.68-.62-.89-1.1c-.22-.48-.32-1.05-.32-1.72s.11-1.25.32-1.72c.22-.48.51-.84.89-1.1s.81-.38,1.3-.38.92.13,1.3.38.68.62.9,1.1c.22.48.33,1.05.33,1.72s-.11,1.25-.33,1.72c-.22.48-.52.84-.9,1.1s-.81.38-1.3.38Zm0-.59c.37,0,.7-.1.97-.3.28-.2.49-.5.65-.88.16-.39.23-.86.23-1.43s-.08-1.04-.23-1.43c-.16-.39-.37-.68-.65-.88-.28-.2-.6-.3-.97-.3s-.68.1-.96.3c-.28.2-.5.5-.66.88-.16.39-.23.86-.23,1.43s.08,1.04.23,1.43c.16.39.38.68.66.88.28.2.6.3.96.3Z"/><path class="cls-1" d="m211.53,23.82v-.46l2.62-2.57c.24-.23.42-.44.54-.62s.2-.34.24-.5c.04-.16.06-.3.06-.44,0-.37-.12-.65-.37-.86s-.62-.31-1.1-.31c-.37,0-.7.06-.99.17s-.53.29-.73.53l-.46-.4c.25-.29.56-.51.94-.67s.81-.23,1.29-.23c.43,0,.79.07,1.11.2.31.13.55.33.72.59.17.26.26.56.26.91,0,.2-.03.41-.08.6-.06.2-.16.41-.31.62-.15.22-.36.47-.64.74l-2.4,2.36-.18-.25h3.91v.58h-4.42Z"/><path class="cls-1" d="m219.33,23.87c-.56,0-1.03-.12-1.41-.37s-.67-.61-.87-1.08-.3-1.04-.3-1.7c0-.71.12-1.31.36-1.8.24-.48.58-.85,1.01-1.09.43-.25.93-.37,1.5-.37.28,0,.55.03.81.08.26.05.49.14.68.26l-.26.52c-.16-.11-.35-.18-.56-.23s-.43-.07-.67-.07c-.68,0-1.22.22-1.62.65-.41.43-.61,1.08-.61,1.93,0,.13,0,.3.02.49.01.2.05.39.1.58l-.23-.17c.07-.31.2-.58.39-.8.19-.22.43-.39.72-.5.29-.11.6-.17.95-.17.42,0,.79.08,1.11.23s.57.38.75.66.27.62.27,1-.09.73-.28,1.02c-.19.29-.44.52-.77.67s-.69.24-1.1.24Zm-.03-.55c.3,0,.57-.06.8-.17.23-.11.41-.27.54-.48.13-.21.2-.45.2-.72,0-.41-.14-.74-.43-.99-.29-.25-.67-.37-1.16-.37-.32,0-.61.06-.85.18s-.43.28-.57.49c-.14.21-.21.44-.21.71,0,.23.06.45.19.65s.31.38.56.5.55.19.91.19Z"/><path class="cls-1" d="m240.66,23.82v-.46l2.62-2.57c.24-.23.42-.44.54-.62.12-.18.2-.34.24-.5.04-.16.06-.3.06-.44,0-.37-.12-.65-.37-.86s-.62-.31-1.1-.31c-.37,0-.7.06-.99.17s-.53.29-.73.53l-.46-.4c.25-.29.56-.51.95-.67s.81-.23,1.29-.23c.43,0,.79.07,1.11.2.31.13.55.33.72.59.17.26.26.56.26.91,0,.2-.03.41-.09.6-.06.2-.16.41-.31.62-.15.22-.36.47-.64.74l-2.4,2.36-.18-.25h3.91v.58h-4.42Z"/><path class="cls-1" d="m246.98,23.82v-6.03l.29.31h-1.77v-.58h2.13v6.3h-.65Z"/><path class="cls-1" d="m251.02,23.87c-.46,0-.89-.07-1.29-.22-.41-.15-.73-.34-.98-.59l.31-.51c.2.21.48.38.82.52.34.14.72.21,1.13.21.52,0,.92-.11,1.2-.34.28-.23.42-.53.42-.92s-.14-.69-.41-.92c-.27-.23-.7-.34-1.29-.34h-.45v-.48l1.94-2.44.09.25h-3.51v-.58h4.05v.46l-1.94,2.44-.32-.21h.24c.76,0,1.32.17,1.7.5.38.34.56.77.56,1.3,0,.35-.08.67-.25.95-.17.28-.42.5-.76.67-.34.16-.76.24-1.27.24Z"/><path class="cls-1" d="m254.7,23.86c-.13,0-.25-.05-.34-.14-.09-.1-.14-.21-.14-.35s.05-.26.14-.35.21-.13.34-.13.24.04.34.13.14.21.14.35-.05.25-.14.35c-.09.1-.21.14-.34.14Z"/><path class="cls-1" d="m256.08,23.82v-.46l2.62-2.57c.24-.23.42-.44.54-.62.12-.18.2-.34.24-.5.04-.16.06-.3.06-.44,0-.37-.12-.65-.37-.86s-.62-.31-1.1-.31c-.37,0-.7.06-.99.17s-.53.29-.73.53l-.46-.4c.25-.29.56-.51.95-.67s.81-.23,1.29-.23c.43,0,.79.07,1.11.2.31.13.55.33.72.59.17.26.26.56.26.91,0,.2-.03.41-.09.6-.06.2-.16.41-.31.62-.15.22-.36.47-.64.74l-2.4,2.36-.18-.25h3.91v.58h-4.42Z"/><path class="cls-1" d="m261.19,23.82v-.46l2.62-2.57c.24-.23.42-.44.54-.62s.2-.34.24-.5c.04-.16.06-.3.06-.44,0-.37-.12-.65-.37-.86s-.62-.31-1.1-.31c-.37,0-.7.06-.99.17s-.53.29-.73.53l-.46-.4c.25-.29.56-.51.94-.67s.81-.23,1.29-.23c.43,0,.79.07,1.11.2.31.13.55.33.72.59.17.26.26.56.26.91,0,.2-.03.41-.08.6-.06.2-.16.41-.31.62-.15.22-.36.47-.64.74l-2.4,2.36-.18-.25h3.91v.58h-4.42Z"/><path class="cls-1" d="m267.52,23.82v-6.03l.29.31h-1.77v-.58h2.13v6.3h-.65Z"/><path class="cls-1" d="m270.16,23.86c-.13,0-.24-.05-.34-.14-.09-.1-.14-.21-.14-.35s.05-.26.14-.35c.09-.09.21-.13.34-.13s.24.04.34.13c.09.09.14.21.14.35s-.05.25-.14.35c-.09.1-.21.14-.34.14Z"/><path class="cls-1" d="m272.59,23.82l2.72-6.01.2.29h-3.9l.33-.32v1.49h-.64v-1.75h4.63v.46l-2.64,5.84h-.7Z"/><path class="cls-1" d="m278.59,23.87c-.46,0-.89-.07-1.29-.22-.41-.15-.73-.34-.98-.59l.32-.51c.2.21.48.38.82.52s.72.21,1.13.21c.52,0,.92-.11,1.2-.34.28-.23.42-.53.42-.92s-.14-.69-.41-.92c-.27-.23-.7-.34-1.29-.34h-.45v-.48l1.94-2.44.09.25h-3.51v-.58h4.05v.46l-1.94,2.44-.32-.21h.24c.76,0,1.32.17,1.7.5.38.34.56.77.56,1.3,0,.35-.08.67-.25.95-.17.28-.42.5-.76.67-.34.16-.76.24-1.27.24Z"/><path class="cls-1" d="m284.18,23.87c-.5,0-.94-.07-1.3-.22-.36-.14-.64-.35-.84-.62-.2-.27-.29-.6-.29-.97s.09-.67.28-.92c.19-.25.46-.45.83-.59.36-.14.8-.21,1.32-.21s.95.07,1.31.21c.37.14.65.33.84.59.19.25.29.56.29.92s-.1.69-.3.97c-.2.27-.48.48-.85.62-.37.14-.8.22-1.31.22Zm0-3.16c-.47,0-.87-.06-1.19-.19s-.58-.31-.75-.54c-.17-.24-.26-.52-.26-.85,0-.35.09-.65.27-.9.18-.25.44-.44.77-.57.33-.13.72-.2,1.16-.2s.83.07,1.17.2.59.32.78.57c.19.25.28.55.28.9s-.09.61-.26.85c-.17.24-.43.42-.76.54s-.73.19-1.2.19Zm0,2.61c.56,0,1-.11,1.31-.34.32-.23.47-.54.47-.93s-.16-.7-.47-.92c-.31-.22-.75-.34-1.31-.34s-.99.11-1.3.34c-.31.22-.47.53-.47.92s.16.7.47.93c.31.23.75.34,1.3.34Zm0-3.04c.49,0,.88-.1,1.15-.31s.41-.48.41-.82c0-.36-.14-.64-.43-.84-.29-.2-.66-.3-1.14-.3s-.85.1-1.13.3c-.28.2-.42.48-.42.83s.14.62.41.83c.27.2.66.31,1.15.31Z"/><path class="cls-1" d="m290.04,23.87c-.49,0-.92-.13-1.3-.38s-.67-.62-.89-1.1c-.22-.48-.32-1.05-.32-1.72s.11-1.25.32-1.72c.22-.48.51-.84.89-1.1s.81-.38,1.3-.38.92.13,1.3.38.68.62.9,1.1c.22.48.33,1.05.33,1.72s-.11,1.25-.33,1.72c-.22.48-.52.84-.9,1.1s-.81.38-1.3.38Zm0-.59c.37,0,.7-.1.97-.3.28-.2.49-.5.65-.88s.23-.86.23-1.43-.08-1.04-.23-1.43c-.16-.39-.37-.68-.65-.88-.28-.2-.6-.3-.97-.3s-.68.1-.96.3c-.28.2-.5.5-.66.88-.16.39-.23.86-.23,1.43s.08,1.04.23,1.43c.16.39.38.68.66.88.28.2.6.3.96.3Z"/><path class="cls-1" d="m313.78,23.86c-.35,0-.66-.06-.92-.18-.26-.12-.46-.28-.6-.49-.14-.21-.21-.45-.21-.72,0-.25.06-.47.18-.67.12-.2.31-.36.58-.49.27-.12.63-.18,1.08-.18h1.63v.48h-1.61c-.46,0-.77.08-.95.24s-.27.36-.27.6c0,.27.1.49.32.65.21.16.5.24.88.24s.67-.08.93-.25c.26-.17.45-.4.57-.72l.14.44c-.12.31-.33.56-.62.75-.3.19-.67.28-1.12.28Zm1.63-.04v-1.04l-.03-.17v-1.75c0-.4-.11-.71-.34-.93-.22-.22-.56-.32-1-.32-.31,0-.6.05-.87.15-.28.1-.51.24-.7.4l-.29-.48c.24-.2.53-.36.86-.47.34-.11.69-.17,1.06-.17.61,0,1.08.15,1.42.45s.5.76.5,1.38v2.93h-.61Z"/><path class="cls-1" d="m323.66,19.05c.38,0,.72.07,1,.22.28.15.51.37.67.67.16.3.24.68.24,1.13v2.75h-.64v-2.68c0-.5-.12-.88-.36-1.13-.24-.25-.57-.38-1-.38-.32,0-.6.07-.84.2-.24.13-.42.33-.55.58s-.19.56-.19.92v2.48h-.64v-2.68c0-.5-.12-.88-.36-1.13s-.58-.38-1.01-.38c-.32,0-.6.07-.84.2-.24.13-.42.33-.55.58s-.19.56-.19.92v2.48h-.64v-4.72h.61v1.28l-.1-.22c.14-.34.38-.61.7-.81s.7-.29,1.14-.29c.46,0,.85.12,1.18.35.32.23.53.58.63,1.04l-.25-.1c.14-.38.38-.69.73-.93.35-.24.77-.36,1.26-.36Z"/><path class="cls-1" d="m328.58,23.86c-.39,0-.76-.06-1.11-.17-.35-.11-.62-.25-.82-.42l.29-.5c.19.14.44.27.74.37.3.11.62.16.95.16.45,0,.77-.07.97-.21.2-.14.3-.33.3-.56,0-.17-.06-.31-.17-.41-.11-.1-.26-.17-.44-.23-.18-.05-.38-.09-.6-.13-.22-.04-.44-.08-.66-.13s-.42-.12-.6-.21c-.18-.09-.33-.22-.44-.38-.11-.16-.17-.38-.17-.65s.07-.49.22-.69c.14-.2.36-.36.63-.48.28-.12.62-.17,1.02-.17.31,0,.61.04.92.12.31.08.56.19.76.32l-.28.51c-.21-.14-.43-.25-.67-.31-.24-.06-.48-.09-.72-.09-.43,0-.74.07-.94.22-.2.15-.3.33-.3.56,0,.18.06.32.17.42.11.1.26.18.44.24.18.06.38.1.6.14.22.04.44.08.66.13.22.05.42.12.6.21.18.09.33.21.44.37s.17.37.17.63c0,.28-.08.51-.23.71-.15.2-.38.36-.67.47-.29.11-.64.17-1.06.17Z"/><path class="cls-1" d="m330.96,19.62v-.53h2.92v.53h-2.92Zm2.23,4.24c-.44,0-.79-.12-1.03-.36-.24-.24-.36-.58-.36-1.02v-4.44h.64v4.4c0,.28.07.49.21.64.14.15.34.22.61.22.28,0,.52-.08.7-.24l.22.46c-.13.11-.28.2-.45.25s-.36.08-.54.08Z"/><path class="cls-1" d="m337.2,23.86c-.49,0-.92-.1-1.3-.31s-.66-.49-.87-.85c-.21-.36-.31-.78-.31-1.25s.1-.88.3-1.24c.2-.36.48-.64.83-.85.35-.21.75-.31,1.18-.31s.84.1,1.18.3c.35.2.62.48.81.85.2.36.3.78.3,1.25,0,.03,0,.06,0,.09s0,.07,0,.1h-4.11v-.48h3.77l-.25.19c0-.34-.07-.65-.22-.91-.15-.27-.35-.48-.6-.63-.25-.15-.54-.22-.87-.22s-.61.08-.87.22c-.26.15-.46.36-.6.63-.14.27-.22.58-.22.93v.1c0,.36.08.68.24.95.16.27.38.49.67.64.29.15.61.23.98.23.29,0,.56-.05.81-.15.25-.1.46-.26.64-.47l.36.41c-.21.25-.47.44-.79.58-.32.13-.66.2-1.04.2Z"/><path class="cls-1" d="m340.63,23.82v-4.72h.61v1.29l-.06-.22c.13-.36.35-.63.67-.82.31-.19.7-.28,1.16-.28v.62s-.05,0-.07,0c-.02,0-.05,0-.07,0-.5,0-.89.15-1.17.46-.28.3-.42.73-.42,1.29v2.41h-.64Z"/><path class="cls-1" d="m346.01,23.86c-.45,0-.85-.1-1.21-.31-.36-.2-.64-.49-.84-.85s-.31-.78-.31-1.26.1-.9.31-1.26.48-.64.84-.84c.36-.2.76-.3,1.21-.3.41,0,.78.09,1.11.28.33.19.59.46.78.81.2.36.29.79.29,1.31s-.1.95-.29,1.31c-.19.36-.45.63-.78.82-.33.19-.7.28-1.12.28Zm.04-.57c.34,0,.64-.08.9-.23.27-.15.48-.37.63-.65s.23-.6.23-.97-.08-.7-.23-.97-.36-.49-.63-.64c-.27-.15-.57-.23-.9-.23s-.63.08-.89.23c-.26.15-.47.37-.63.64s-.23.6-.23.97.08.69.23.97.37.5.63.65c.26.15.56.23.89.23Zm1.78.52v-1.42l.06-.95-.09-.95v-3.35h.64v6.68h-.61Z"/><path class="cls-1" d="m351.56,23.86c-.35,0-.66-.06-.92-.18-.26-.12-.46-.28-.6-.49-.14-.21-.21-.45-.21-.72,0-.25.06-.47.18-.67.12-.2.31-.36.58-.49.27-.12.63-.18,1.08-.18h1.63v.48h-1.61c-.46,0-.77.08-.95.24s-.27.36-.27.6c0,.27.1.49.32.65.21.16.5.24.88.24s.67-.08.93-.25c.26-.17.45-.4.57-.72l.14.44c-.12.31-.33.56-.62.75-.3.19-.67.28-1.12.28Zm1.63-.04v-1.04l-.03-.17v-1.75c0-.4-.11-.71-.34-.93-.22-.22-.56-.32-1-.32-.31,0-.6.05-.87.15-.28.1-.51.24-.7.4l-.29-.48c.24-.2.53-.36.86-.47.34-.11.69-.17,1.06-.17.61,0,1.08.15,1.42.45s.5.76.5,1.38v2.93h-.61Z"/><path class="cls-1" d="m361.44,19.05c.38,0,.72.07,1,.22.28.15.51.37.67.67.16.3.24.68.24,1.13v2.75h-.64v-2.68c0-.5-.12-.88-.36-1.13-.24-.25-.57-.38-1-.38-.32,0-.6.07-.84.2-.24.13-.42.33-.55.58s-.19.56-.19.92v2.48h-.64v-2.68c0-.5-.12-.88-.36-1.13s-.58-.38-1.01-.38c-.32,0-.6.07-.84.2-.24.13-.42.33-.55.58s-.19.56-.19.92v2.48h-.64v-4.72h.61v1.28l-.1-.22c.14-.34.38-.61.7-.81s.7-.29,1.14-.29c.46,0,.85.12,1.18.35.32.23.53.58.63,1.04l-.25-.1c.14-.38.38-.69.73-.93.35-.24.77-.36,1.26-.36Z"/><path class="cls-1" d="m370.99,19.05c.38,0,.72.07,1,.22.28.15.51.37.67.67.16.3.24.68.24,1.13v2.75h-.64v-2.68c0-.5-.12-.88-.36-1.13-.24-.25-.57-.38-1-.38-.32,0-.6.07-.84.2-.24.13-.42.33-.55.58s-.19.56-.19.92v2.48h-.64v-2.68c0-.5-.12-.88-.36-1.13s-.58-.38-1.01-.38c-.32,0-.6.07-.84.2-.24.13-.42.33-.55.58s-.19.56-.19.92v2.48h-.64v-4.72h.61v1.28l-.1-.22c.14-.34.38-.61.7-.81s.7-.29,1.14-.29c.46,0,.85.12,1.18.35.32.23.53.58.63,1.04l-.25-.1c.14-.38.38-.69.73-.93.35-.24.77-.36,1.26-.36Z"/><path class="cls-1" d="m376.56,23.86c-.46,0-.87-.1-1.23-.31-.36-.21-.65-.49-.86-.85-.21-.36-.31-.78-.31-1.25s.1-.89.31-1.25c.21-.36.5-.64.86-.85s.77-.31,1.23-.31.88.1,1.25.31.65.49.86.85c.21.36.31.78.31,1.25s-.1.88-.31,1.25c-.21.36-.49.65-.86.85-.37.21-.78.31-1.24.31Zm0-.57c.34,0,.64-.08.91-.23.26-.15.47-.37.63-.65s.23-.6.23-.97-.08-.7-.23-.97-.36-.49-.63-.64c-.26-.15-.56-.23-.9-.23s-.64.08-.9.23c-.26.15-.47.37-.63.64s-.23.6-.23.97.08.69.23.97.37.5.63.65c.26.15.56.23.89.23Z"/><path class="cls-1" d="m382.16,23.86c-.45,0-.85-.1-1.21-.31-.36-.2-.64-.49-.84-.85s-.31-.78-.31-1.26.1-.9.31-1.26.48-.64.84-.84c.36-.2.76-.3,1.21-.3.41,0,.78.09,1.11.28.33.19.59.46.78.81.2.36.29.79.29,1.31s-.1.95-.29,1.31c-.19.36-.45.63-.78.82-.33.19-.7.28-1.12.28Zm.04-.57c.34,0,.64-.08.9-.23.27-.15.48-.37.63-.65s.23-.6.23-.97-.08-.7-.23-.97-.36-.49-.63-.64c-.27-.15-.57-.23-.9-.23s-.63.08-.89.23c-.26.15-.47.37-.63.64s-.23.6-.23.97.08.69.23.97.37.5.63.65c.26.15.56.23.89.23Zm1.78.52v-1.42l.06-.95-.09-.95v-3.35h.64v6.68h-.61Z"/><path class="cls-1" d="m388.39,23.86c-.49,0-.92-.1-1.3-.31s-.66-.49-.87-.85c-.21-.36-.31-.78-.31-1.25s.1-.88.3-1.24c.2-.36.48-.64.83-.85.35-.21.75-.31,1.18-.31s.84.1,1.18.3c.35.2.62.48.81.85.2.36.3.78.3,1.25,0,.03,0,.06,0,.09s0,.07,0,.1h-4.11v-.48h3.77l-.25.19c0-.34-.07-.65-.22-.91-.15-.27-.35-.48-.6-.63-.25-.15-.54-.22-.87-.22s-.61.08-.87.22c-.26.15-.46.36-.6.63-.14.27-.22.58-.22.93v.1c0,.36.08.68.24.95.16.27.38.49.67.64.29.15.61.23.98.23.29,0,.56-.05.81-.15.25-.1.46-.26.64-.47l.36.41c-.21.25-.47.44-.79.58-.32.13-.66.2-1.04.2Z"/><path class="cls-1" d="m391.82,23.82v-4.72h.61v1.29l-.06-.22c.13-.36.35-.63.67-.82.31-.19.7-.28,1.16-.28v.62s-.05,0-.07,0c-.02,0-.05,0-.07,0-.5,0-.89.15-1.17.46-.28.3-.42.73-.42,1.29v2.41h-.64Z"/><path class="cls-1" d="m397.78,19.05c.38,0,.72.07,1.01.22.29.15.52.37.68.67s.25.68.25,1.13v2.75h-.64v-2.68c0-.5-.12-.88-.37-1.13s-.6-.38-1.05-.38c-.34,0-.63.07-.88.2-.25.13-.44.33-.58.58s-.2.56-.2.92v2.48h-.64v-4.72h.61v1.3l-.1-.24c.15-.34.39-.61.72-.81s.72-.29,1.18-.29Z"/><path class="cls-1" d="m401.51,23.86c-.13,0-.25-.05-.34-.14-.09-.1-.14-.21-.14-.35s.05-.26.14-.35.21-.13.34-.13.24.04.34.13c.09.09.14.21.14.35s-.05.25-.14.35c-.09.1-.21.14-.34.14Z"/><path class="cls-1" d="m405.19,23.86c-.47,0-.89-.1-1.25-.31s-.66-.49-.87-.85c-.21-.36-.31-.78-.31-1.25s.1-.89.31-1.25c.21-.36.5-.64.87-.85s.79-.31,1.25-.31c.4,0,.77.08,1.09.23.32.16.58.39.76.7l-.48.32c-.16-.24-.36-.42-.6-.53s-.5-.17-.78-.17c-.34,0-.64.08-.91.23-.27.15-.48.37-.64.64s-.23.6-.23.97.08.7.23.97c.16.28.37.49.64.64.27.15.57.23.91.23.28,0,.54-.06.78-.17.24-.11.44-.29.6-.52l.48.32c-.19.31-.44.54-.76.7-.32.16-.69.24-1.09.24Z"/><path class="cls-1" d="m410.15,23.86c-.46,0-.87-.1-1.23-.31-.36-.21-.65-.49-.86-.85-.21-.36-.31-.78-.31-1.25s.1-.89.31-1.25c.21-.36.5-.64.86-.85s.77-.31,1.23-.31.88.1,1.25.31.65.49.86.85c.21.36.31.78.31,1.25s-.1.88-.31,1.25c-.21.36-.49.65-.86.85-.37.21-.78.31-1.24.31Zm0-.57c.34,0,.64-.08.91-.23.26-.15.47-.37.63-.65s.23-.6.23-.97-.08-.7-.23-.97-.36-.49-.63-.64c-.26-.15-.56-.23-.9-.23s-.64.08-.9.23c-.26.15-.47.37-.63.64s-.23.6-.23.97.08.69.23.97.37.5.63.65c.26.15.56.23.89.23Z"/><path class="cls-1" d="m419.77,19.05c.38,0,.72.07,1,.22.28.15.51.37.67.67.16.3.24.68.24,1.13v2.75h-.64v-2.68c0-.5-.12-.88-.36-1.13-.24-.25-.57-.38-1-.38-.32,0-.6.07-.84.2-.24.13-.42.33-.55.58s-.19.56-.19.92v2.48h-.64v-2.68c0-.5-.12-.88-.36-1.13s-.58-.38-1.01-.38c-.32,0-.6.07-.84.2-.24.13-.42.33-.55.58s-.19.56-.19.92v2.48h-.64v-4.72h.61v1.28l-.1-.22c.14-.34.38-.61.7-.81s.7-.29,1.14-.29c.46,0,.85.12,1.18.35.32.23.53.58.63,1.04l-.25-.1c.14-.38.38-.69.73-.93.35-.24.77-.36,1.26-.36Z"/><path class="cls-1" d="m12.06,16.08c.23-1.68-.02-5.28-.02-5.28l5.15.56s.18,4.68-.56,5.73l-4.57-1Zm5.54,1.14c.81-1.24.47-5.77.47-5.77,0,0,.91.09,1.05.03,1.5-.72,1.4-5.79.34-6.15-1.06-.39-2.81-.59-4.44-.66-1.36-.06-3.52-.36-4.74,0-1.15.34-2.06,4.51-1.12,5.48.44.45,1.63.31,2.14.56-.06,1.7.12,3.66-.09,5.2-2.46-.7-4.55-.15-7.16.37-1.12.23-3.57.49-3.53,1.39.03.7,2.06,1.09,2.79,1.3,1.24.35,2.39.46,3.53.65-1.38,2.63-4.1,8.16-5.63,11.21-.18.36-.84.86.24.87.86.01.08-.61.28-.68,1.29-2.44,3.29-6.09,4.72-8.76.49-.92,1.27-2.95,2.53-2.56.48,2.1,1.36,5.78,1.81,7.84.14.64-.33.7.42.72.91.02.14-.1.02-.73-.44-2.23-1.23-7.82-1.23-7.82l4.38.56s-2.61,8.93-3.82,13.66c-.09.38-.58.48-.36.87.33.16,1.67.17,1.11-.62,1.09-5.19,2.79-8.4,4.28-13.5.68,1.91,3.44,8.57,3.78,10.07.04.19-.2.44.3.39.63-.14.31-.36.08-.52-.82-3.73-1.97-7-2.85-10.66.94-.05,1.94-1.24,1.78-2.11,0,0-.24-.46-1.06-.65"/></svg>